<?xml version="1.0" standalone="no"?>
<!DOCTYPE svg PUBLIC "-//W3C//DTD SVG 20010904//EN" "http://www.w3.org/TR/2001/REC-SVG-20010904/DTD/svg10.dtd">
<svg version="1.0" xmlns="http://www.w3.org/2000/svg" width="256.000000pt" height="256.000000pt" viewBox="0 0 256.000000 256.000000" preserveAspectRatio="xMidYMid meet">
    <g transform="translate(0.000000,256.000000) scale(0.100000,-0.100000)" fill="#FF2F3B" stroke="none">
        <path d="M566 1928 c-75 -105 -134 -193 -133 -195 2 -1 296 0 654 4 l651 6 110 189 111 188 -628 0 -629 0 -136 -192z"/>
        <path d="M482 1313 l-110 -188 454 -3 454 -2 23 -38 c13 -20 99 -171 192 -335 92 -164 171 -294 175 -290 13 14 190 412 189 425 0 7 -78 148 -172 313 l-173 300 -461 3 -461 2 -110 -187z"/>
        <path d="M1897 1419 l-47 -81 252 -444 c138 -244 255 -441 258 -437 11 13 193 437 193 448 0 5 -50 97 -111 203 l-110 193 58 100 59 99 -252 0 -252 0 -48 -81z"/>
        <path d="M121 700 c-61 -104 -111 -192 -111 -195 0 -3 226 -4 501 -3 l501 3 109 185 c60 102 109 188 109 193 0 4 -224 7 -499 7 l-499 0 -111 -190z"/>
    </g>
</svg>